<svg xmlns="http://www.w3.org/2000/svg" version="1.1" xmlns:xlink="http://www.w3.org/1999/xlink" xmlns:svgjs="http://svgjs.dev/svgjs" width="128" height="128" viewBox="0 0 128 128"><g transform="matrix(0.8046875,0,0,0.8046875,12.433896758629217,5.875604838709677)"><svg viewBox="0 0 137 155" data-background-color="#ffffff" preserveAspectRatio="xMidYMid meet" height="144" width="128" xmlns="http://www.w3.org/2000/svg" xmlns:xlink="http://www.w3.org/1999/xlink"><g id="tight-bounds" transform="matrix(1,0,0,1,0.08792372881356414,0.25)"><svg viewBox="0 0 136.8241525423729 154.5" height="154.5" width="136.8241525423729"><g><svg viewBox="0 0 136.8241525423729 154.5" height="154.5" width="136.8241525423729"><g><svg viewBox="0 0 136.8241525423729 154.5" height="154.5" width="136.8241525423729"><g id="textblocktransform"><svg viewBox="0 0 136.8241525423729 154.5" height="154.5" width="136.8241525423729" id="textblock"><g><svg viewBox="0 0 136.8241525423729 154.5" height="154.5" width="136.8241525423729"><g transform="matrix(1,0,0,1,0,0)"><svg width="136.8241525423729" viewBox="1.95 -23.6 20.900000000000002 23.6" height="154.5" data-palette-color="#00a693"><g class="wordmark-text-0" data-fill-palette-color="primary" id="text-0"><path d="M7-19.95L7-23.3Q8.8-23.6 10.85-23.6L10.85-23.6Q16.4-23.6 19.8-20.25L19.8-20.25Q22.85-17.15 22.85-12.4L22.85-12.4 22.85-4.75Q22.85-2.8 21.6-1.45L21.6-1.45Q20.3 0 18.4 0L18.4 0 1.95 0 1.95-3.55 16.75-3.55Q18.6-3.55 18.6-5.45L18.6-5.45 18.6-11.8Q18.6-15.35 16.45-17.7L16.45-17.7Q14.15-20.1 9.35-20.15L9.35-20.15Q7.95-20.15 7-19.95L7-19.95Z" fill="#00a693" data-fill-palette-color="primary"></path></g></svg></g></svg></g></svg></g></svg></g></svg></g><defs></defs></svg><rect width="136.8241525423729" height="154.5" fill="none" stroke="none" visibility="hidden"></rect></g></svg></g></svg>