<svg xmlns="http://www.w3.org/2000/svg" version="1.1" xmlns:xlink="http://www.w3.org/1999/xlink" xmlns:svgjs="http://svgjs.dev/svgjs" width="2000" height="1500" viewBox="0 0 2000 1500"><rect width="2000" height="1500" fill="#ffffff"></rect><g transform="matrix(0.75,0,0,0.75,249.090909090909,347.3759906192669)"><svg viewBox="0 0 396 212" data-background-color="#ffffff" preserveAspectRatio="xMidYMid meet" height="1070" width="2000" xmlns="http://www.w3.org/2000/svg" xmlns:xlink="http://www.w3.org/1999/xlink"><g id="tight-bounds" transform="matrix(1,0,0,1,0.2400000000000091,0.36297817908463514)"><svg viewBox="0 0 395.52 211.27404364183073" height="211.27404364183073" width="395.52"><g><svg viewBox="0 0 395.52 211.27404364183073" height="211.27404364183073" width="395.52"><g><svg viewBox="0 0 395.52 211.27404364183073" height="211.27404364183073" width="395.52"><g id="textblocktransform"><svg viewBox="0 0 395.52 211.27404364183073" height="211.27404364183073" width="395.52" id="textblock"><g><svg viewBox="0 0 395.52 169.6040557667934" height="169.6040557667934" width="395.52"><g transform="matrix(1,0,0,1,0,0)"><svg width="395.52" viewBox="2.75 -35.8 118.34 50.74999999999999" height="169.6040557667934" data-palette-color="#00a693"><g class="wordmark-text-0" data-fill-palette-color="primary" id="text-0"><path d="M21.7-24.35L23.8-24.35 23.8-5.45Q23.8-4.55 24.3-4.05L24.3-4.05Q24.75-3.55 25.3-3.55L25.3-3.55 26.3-3.55 26.3 0 24.2 0Q21.9 0 20.55-1.75L20.55-1.75Q17.3 0.55 13.55 0.55L13.55 0.55Q8.3 0.55 5.25-3.55L5.25-3.55Q2.75-6.9 2.75-11.55L2.75-11.55Q2.75-17 6.35-20.6L6.35-20.6Q9.55-23.85 14.2-23.85L14.2-23.85Q16.85-23.85 19.55-22.65L19.55-22.65 21.7-24.35ZM19.55-4.5L19.55-19.15Q17.35-20.25 15.1-20.25L15.1-20.25Q11.3-20.25 8.95-17.25L8.95-17.25Q7-14.8 7-11.45L7-11.45Q7-7.45 8.9-5.15L8.9-5.15Q10.75-3.05 13.9-3.05L13.9-3.05Q16.6-3.05 19.55-4.5L19.55-4.5ZM32.6-18.8L32.6-22.15Q37.2-23.6 41.2-23.6L41.2-23.6Q47.4-23.6 50.65-19.75L50.65-19.75Q53.45-16.45 53.45-11.1L53.45-11.1 53.45-4.75Q53.45-3.05 52.4-1.75L52.4-1.75Q51.1 0 48.95 0L48.95 0 25.95 0 25.95-3.55 47.3-3.55Q49.2-3.55 49.2-5.45L49.2-5.45 49.2-11.25Q49.2-15.15 47.15-17.4L47.15-17.4Q44.9-19.9 40.6-19.9L40.6-19.9Q38-19.9 32.6-18.8L32.6-18.8ZM35.5 5.2L35.5 5.2Q36.55 5.2 37.27 5.93 38 6.65 38 7.65L38 7.65Q38 8.7 37.27 9.43 36.55 10.15 35.5 10.15L35.5 10.15Q34.5 10.15 33.77 9.43 33.05 8.7 33.05 7.65L33.05 7.65Q33.05 6.65 33.77 5.93 34.5 5.2 35.5 5.2ZM41.6 5.2L41.6 5.2Q42.6 5.2 43.32 5.93 44.05 6.65 44.05 7.65L44.05 7.65Q44.05 8.7 43.32 9.43 42.6 10.15 41.6 10.15L41.6 10.15Q40.6 10.15 39.87 9.43 39.15 8.7 39.15 7.65L39.15 7.65Q39.15 6.65 39.87 5.93 40.6 5.2 41.6 5.2ZM38.55 10.25L38.55 10.25Q39.55 10.25 40.22 10.93 40.9 11.6 40.9 12.6L40.9 12.6Q40.9 13.55 40.22 14.25 39.55 14.95 38.55 14.95L38.55 14.95Q37.6 14.95 36.9 14.25 36.2 13.55 36.2 12.6L36.2 12.6Q36.2 11.6 36.9 10.93 37.6 10.25 38.55 10.25ZM59.7-35.8L63.95-35.8 63.95-5.45Q63.95-4.65 64.45-4.1L64.45-4.1Q65-3.55 65.84-3.55L65.84-3.55 66.5-3.55 66.5 0 64.2 0Q62.6 0 61.4-1.05L61.4-1.05Q59.7-2.5 59.7-4.75L59.7-4.75 59.7-35.8ZM75.14-23L79.39-23 79.39-4.75Q79.39-4.15 79.24-3.55L79.24-3.55 81.89-3.55 81.89 0 79.94 0 78.49-1.75 78.34-1.75Q76.99 0 74.84 0L74.84 0 66.14 0 66.14-3.55 73.24-3.55Q74.04-3.55 74.54-4.05L74.54-4.05Q75.14-4.6 75.14-5.45L75.14-5.45 75.14-23ZM76.89 5.2L76.89 5.2Q77.94 5.2 78.67 5.93 79.39 6.65 79.39 7.65L79.39 7.65Q79.39 8.7 78.67 9.43 77.94 10.15 76.89 10.15L76.89 10.15Q75.89 10.15 75.17 9.43 74.44 8.7 74.44 7.65L74.44 7.65Q74.44 6.65 75.17 5.93 75.89 5.2 76.89 5.2ZM90.54-23L94.79-23 94.79-4.75Q94.79-2.9 93.59-1.55L93.59-1.55Q92.24 0 90.24 0L90.24 0 81.54 0 81.54-3.55 88.64-3.55Q89.49-3.55 90.04-4.15L90.04-4.15Q90.54-4.65 90.54-5.45L90.54-5.45 90.54-23ZM85.79 5.2L85.79 5.2Q86.79 5.2 87.52 5.93 88.24 6.65 88.24 7.65L88.24 7.65Q88.24 8.7 87.52 9.43 86.79 10.15 85.79 10.15L85.79 10.15Q84.74 10.15 84.02 9.43 83.29 8.7 83.29 7.65L83.29 7.65Q83.29 6.65 84.02 5.93 84.74 5.2 85.79 5.2ZM91.84 5.2L91.84 5.2Q92.89 5.2 93.59 5.93 94.29 6.65 94.29 7.65L94.29 7.65Q94.29 8.7 93.59 9.43 92.89 10.15 91.84 10.15L91.84 10.15Q90.84 10.15 90.12 9.43 89.39 8.7 89.39 7.65L89.39 7.65Q89.39 6.65 90.12 5.93 90.84 5.2 91.84 5.2ZM105.24-19.95L105.24-23.3Q107.04-23.6 109.09-23.6L109.09-23.6Q114.64-23.6 118.04-20.25L118.04-20.25Q121.09-17.15 121.09-12.4L121.09-12.4 121.09-4.75Q121.09-2.8 119.84-1.45L119.84-1.45Q118.54 0 116.64 0L116.64 0 100.19 0 100.19-3.55 114.99-3.55Q116.84-3.55 116.84-5.45L116.84-5.45 116.84-11.8Q116.84-15.35 114.69-17.7L114.69-17.7Q112.39-20.1 107.59-20.15L107.59-20.15Q106.19-20.15 105.24-19.95L105.24-19.95Z" fill="#00a693" data-fill-palette-color="primary"></path></g></svg></g></svg></g><g transform="matrix(1,0,0,1,391.76256,209.64350283599492)"><svg viewBox="0 0 3.75744 1.630540805835809" height="1.630540805835809" width="3.75744"><g transform="matrix(1,0,0,1,0,0)"><svg width="3.75744" viewBox="0.7 -25.90833333333 89.19 38.70833333333" height="1.630540805835809" data-palette-color="#2257bf"><path d="M13.05-24.85Q16.5-24.25 19.13-21.95 21.75-19.65 23.15-16.43 24.55-13.2 24.55-9.95L24.55-9.95Q24.55-5.65 22.08-2.78 19.6 0.1 14.75 0.1L14.75 0.1Q11.8 0.1 8.3-1.05L8.3-1.05Q4.65-2.25 2.68-5.2 0.7-8.15 0.7-11.85L0.7-11.85Q0.7-13.25 1-14.65L1-14.65Q1.65-17.6 3.28-19.95 4.9-22.3 7.13-23.63 9.35-24.95 11.7-24.95L11.7-24.95Q12.6-24.95 13.05-24.85L13.05-24.85ZM9.5-2.75Q12.25-1.95 14.5-1.95L14.5-1.95Q18.55-1.95 20.63-4.3 22.7-6.65 22.7-10.2L22.7-10.2Q22.7-13 21.45-15.78 20.2-18.55 17.9-20.53 15.6-22.5 12.6-23.05L12.6-23.05Q11.9-23.15 11.55-23.15L11.55-23.15Q9.65-23.15 7.83-22 6-20.85 4.63-18.82 3.25-16.8 2.7-14.3L2.7-14.3Q2.5-13.45 2.5-12.35L2.5-12.35Q2.5-11.85 2.6-10.85L2.6-10.85Q3-12.35 4.1-13.7L4.1-13.7Q6.1-15.9 8.3-15.9L8.3-15.9Q9.55-15.9 10.75-15.13 11.95-14.35 12.9-12.85L12.9-12.85Q14.3-10.65 14.3-8.45L14.3-8.45Q14.3-6.95 13.63-5.7 12.95-4.45 11.6-3.65L11.6-3.65Q10.55-3 9.5-2.75L9.5-2.75ZM5.15-6.45Q6.45-4.5 8.3-4.5L8.3-4.5Q9.4-4.5 10.6-5.25L10.6-5.25Q12.45-6.4 12.45-8.5L12.45-8.5Q12.45-10.15 11.25-11.85L11.25-11.85Q9.8-14.05 8.2-14.05L8.2-14.05Q6.95-14.05 5.55-12.5L5.55-12.5Q4.25-10.95 4.25-9.25L4.25-9.25Q4.25-7.75 5.15-6.45L5.15-6.45ZM39.65-1.9L40.3-1.9 40.2 0Q38.4 0 36.62 0.9 34.85 1.8 33.75 3.3 32.65 4.8 32.65 6.4L32.65 6.4Q32.65 8.5 34.32 9.73 36 10.95 38.9 10.95L38.9 10.95Q39.15 10.95 39.15 11.15L39.15 11.15 39.25 12.55Q39.25 12.65 39.15 12.73 39.05 12.8 38.95 12.8L38.95 12.8Q35.85 12.8 33.75 11.58 31.65 10.35 31.05 8.15L31.05 8.15Q30.85 7.4 30.85 6.55L30.85 6.55Q30.85 3.85 32.82 1.5 34.8-0.85 37.65-1.6L37.65-1.6 37.85-2.9Q38.8-8.3 38.8-11L38.8-11Q38.8-16 35.95-19.23 33.1-22.45 25.7-24L25.7-24Q25.45-24.1 25.5-24.3L25.5-24.3 25.85-25.7Q26-25.95 26.15-25.9L26.15-25.9Q34.4-24.2 37.57-20.45 40.75-16.7 40.75-11.1L40.75-11.1Q40.75-9.15 40.47-7.05 40.2-4.95 39.65-1.9L39.65-1.9ZM37.6 4.5Q37.65 3.85 37.15 3.43 36.65 3 36 3L36 3Q35.45 3 34.97 3.43 34.5 3.85 34.5 4.35L34.5 4.35Q34.45 4.95 34.87 5.35 35.3 5.75 35.9 5.75L35.9 5.75Q36.6 5.8 37.1 5.45 37.6 5.1 37.6 4.5L37.6 4.5ZM41.2 5.95Q41.2 5.3 40.75 4.88 40.3 4.45 39.7 4.45L39.7 4.45Q39.05 4.4 38.55 4.85 38.05 5.3 38.05 5.9L38.05 5.9Q38.05 6.5 38.52 6.85 39 7.2 39.65 7.2L39.65 7.2Q40.3 7.2 40.72 6.88 41.15 6.55 41.2 5.95L41.2 5.95ZM36.8 6Q36.35 6 35.95 6.33 35.55 6.65 35.4 7.1L35.4 7.1Q35.3 7.5 35.3 7.65L35.3 7.65Q35.3 8.15 35.55 8.53 35.8 8.9 36.25 9.05L36.25 9.05Q36.55 9.15 36.7 9.15L36.7 9.15Q37.1 9.15 37.47 8.85 37.85 8.55 38 8.1L38 8.1Q38.1 7.9 38.1 7.4L38.1 7.4Q38.1 6.8 37.77 6.4 37.45 6 36.8 6L36.8 6ZM53.2-23.75Q48.55-22.8 45.95-20.23 43.35-17.65 43.35-14.05L43.35-14.05Q43.35-13.1 43.6-11.85L43.6-11.85Q44.6-7.45 48.42-4.75 52.25-2.05 57.7-1.9L57.7-1.9 58.8-1.9Q59.05-1.9 59.05-1.65L59.05-1.65Q58.95 2.95 56.85 5.78 54.75 8.6 51.35 8.6L51.35 8.6Q48.8 8.6 47.25 6.3 45.7 4 45.6 0.2L45.6 0.2Q45.6-0.05 45.85-0.05L45.85-0.05 47.25-0.05Q47.5-0.05 47.5 0.2L47.5 0.2Q47.55 3.1 48.6 4.9 49.65 6.7 51.35 6.7L51.35 6.7Q53.6 6.7 55.12 4.88 56.65 3.05 57.05-0.05L57.05-0.05Q51.15-0.35 46.95-3.45 42.75-6.55 41.7-11.45L41.7-11.45Q41.45-12.6 41.45-14L41.45-14Q41.45-18.35 44.47-21.48 47.5-24.6 52.8-25.65L52.8-25.65Q53.8-25.85 55.25-25.85L55.25-25.85Q57.05-25.85 58.87-25.48 60.7-25.1 62.2-24.35L62.2-24.35 61.4-22.65Q60.05-23.3 58.47-23.63 56.9-23.95 55.35-23.95L55.35-23.95Q54.05-23.95 53.2-23.75L53.2-23.75ZM60.14 11.65Q59.94 11.85 59.79 11.6L59.79 11.6 58.89 10.6Q58.79 10.4 58.94 10.25L58.94 10.25Q62.39 7.1 64.42 2.45 66.44-2.2 66.44-7.05L66.44-7.05Q66.44-7.7 66.34-9L66.34-9Q66.34-9.1 66.42-9.2 66.49-9.3 66.59-9.3L66.59-9.3 67.99-9.45Q68.24-9.45 68.24-9.2L68.24-9.2Q68.29-8.6 68.29-7.35L68.29-7.35Q68.29-2 66.09 3.13 63.89 8.25 60.14 11.65L60.14 11.65ZM75.04-25.15Q83.44-23.45 86.67-19.68 89.89-15.9 89.89-10.3L89.89-10.3Q89.89-8.45 89.64-6.63 89.39-4.8 88.84-1.35L88.84-1.35 88.59 0Q85.54 0.5 80.44 0.5L80.44 0.5Q75.34 0.5 71.84 0L71.84 0 71.84-1.85Q75.84-1.3 79.89-1.3L79.89-1.3Q83.54-1.3 86.94-1.7L86.94-1.7Q87.44-4.8 87.69-6.65 87.94-8.5 87.94-10.2L87.94-10.2Q87.94-15.25 85.04-18.5 82.14-21.75 74.59-23.25L74.59-23.25 75.04-25.15Z" opacity="1" transform="matrix(1,0,0,1,0,0)" fill="#2257bf" class="slogan-text-1" data-fill-palette-color="secondary" id="text-1"></path></svg></g></svg></g></svg></g></svg></g></svg></g><defs></defs></svg><rect width="395.52" height="211.27404364183073" fill="none" stroke="none" visibility="hidden"></rect></g></svg></g></svg>