<?xml version="1.0" encoding="UTF-8" standalone="no" ?>
<!DOCTYPE svg PUBLIC "-//W3C//DTD SVG 1.1//EN" "http://www.w3.org/Graphics/SVG/1.1/DTD/svg11.dtd">
<svg xmlns="http://www.w3.org/2000/svg" xmlns:xlink="http://www.w3.org/1999/xlink" version="1.1" width="1080" height="1080" viewBox="0 0 1080 1080" xml:space="preserve">
<desc>Created with Fabric.js 5.2.4</desc>
<defs>
</defs>
<rect x="0" y="0" width="100%" height="100%" fill="transparent"></rect>
<g transform="matrix(1 0 0 1 540 540)" id="43c04806-cd63-457e-8386-a535f84f1466"  >
<rect style="stroke: none; stroke-width: 1; stroke-dasharray: none; stroke-linecap: butt; stroke-dashoffset: 0; stroke-linejoin: miter; stroke-miterlimit: 4; fill: rgb(255,255,255); fillRule: nonzero; opacity: 1; visibility: hidden;" vector-effect="non-scaling-stroke"  x="-540" y="-540" rx="0" ry="0" width="1080" height="1080" />
</g>
<g transform="matrix(1 0 0 1 540 540)" id="13d48368-ae47-4ad6-99ca-86c761f0f031"  >
</g>
<g transform="matrix(45 0 0 45 540 540)"  >
<path style="stroke: rgb(255,255,255); stroke-width: 1.5; stroke-dasharray: none; stroke-linecap: round; stroke-dashoffset: 0; stroke-linejoin: round; stroke-miterlimit: 4; fill: none; fillRule: nonzero; opacity: 1;"  transform=" translate(-12, -12)" d="M 3.75 6 C 3.75 4.757359312880714 4.757359312880714 3.75 6 3.75 L 8.25 3.75 C 9.492640687119286 3.75 10.5 4.757359312880714 10.5 6 L 10.5 8.25 C 10.5 9.492640687119286 9.492640687119286 10.5 8.25 10.5 L 6 10.5 C 4.757359312880714 10.5 3.75 9.492640687119286 3.75 8.25 L 3.75 6 Z M 3.75 15.75 C 3.75 14.507359312880714 4.757359312880714 13.5 6 13.5 L 8.25 13.5 C 9.492640687119286 13.5 10.5 14.507359312880714 10.5 15.75 L 10.5 18 C 10.5 19.242640687119284 9.492640687119286 20.25 8.25 20.25 L 6 20.25 C 4.757359312880714 20.25 3.75 19.242640687119284 3.75 18 L 3.75 15.75 Z M 13.5 6 C 13.5 4.757359312880714 14.507359312880714 3.75 15.75 3.75 L 18 3.75 C 19.242640687119284 3.75 20.25 4.757359312880714 20.25 6 L 20.25 8.25 C 20.25 9.492640687119286 19.242640687119284 10.5 18 10.5 L 15.75 10.5 C 14.507359312880714 10.5 13.5 9.492640687119286 13.5 8.25 L 13.5 6 Z M 13.5 15.75 C 13.5 14.507359312880714 14.507359312880714 13.5 15.75 13.5 L 18 13.5 C 19.242640687119284 13.5 20.25 14.507359312880714 20.25 15.75 L 20.25 18 C 20.25 19.242640687119284 19.242640687119284 20.25 18 20.25 L 15.75 20.25 C 14.507359312880714 20.25 13.5 19.242640687119284 13.5 18 L 13.5 15.75 Z" stroke-linecap="round" />
</g>
</svg>