<?xml version="1.0" encoding="UTF-8" standalone="no" ?>
<!DOCTYPE svg PUBLIC "-//W3C//DTD SVG 1.1//EN" "http://www.w3.org/Graphics/SVG/1.1/DTD/svg11.dtd">
<svg xmlns="http://www.w3.org/2000/svg" xmlns:xlink="http://www.w3.org/1999/xlink" version="1.1" width="1080" height="1080" viewBox="0 0 1080 1080" xml:space="preserve">
<desc>Created with Fabric.js 5.2.4</desc>
<defs>
</defs>
<rect x="0" y="0" width="100%" height="100%" fill="transparent"></rect>
<g transform="matrix(1 0 0 1 540 540)" id="21deec2e-f4cf-4418-afea-c39989a2a14b"  >
<rect style="stroke: none; strokeWidth: 1; stroke-dasharray: none; strokeLinecap: butt; stroke-dashoffset: 0; strokeLinejoin: miter; stroke-miterlimit: 4; fill: rgb(255,255,255); fillRule: nonzero; opacity: 1; visibility: hidden;" vector-effect="non-scaling-stroke"  x="-540" y="-540" rx="0" ry="0" width="1080" height="1080" />
</g>
<g transform="matrix(1 0 0 1 540 540)" id="a0ead48e-965e-4dbc-aae4-48080de18574"  >
</g>
<g transform="matrix(54 0 0 54 540 540)"  >
<path style="stroke: none; strokeWidth: 1; stroke-dasharray: none; strokeLinecap: butt; stroke-dashoffset: 0; strokeLinejoin: miter; stroke-miterlimit: 4; fill: rgb(0,0,0); fillRule: evenodd; opacity: 0.8;"  transform=" translate(-10.01, -10.87)" d="M 5.22 8.22 C 5.512817546773957 7.927546621942486 5.987182453226042 7.927546621942486 6.279999999999999 8.22 L 10 11.94 L 13.72 8.219999999999999 C 13.906970580463987 8.01934682238796 14.188555542158953 7.936750818492486 14.454288908638542 8.004614458125744 C 14.720022275118133 8.072478097759001 14.927521902240999 8.279977724881867 14.995385541874256 8.545711091361456 C 15.063249181507514 8.811444457841047 14.98065317761204 9.093029419536013 14.780000000000001 9.28 L 10.530000000000001 13.53 C 10.237182453226044 13.822453378057514 9.762817546773958 13.822453378057514 9.47 13.53 L 5.22 9.28 C 4.927546621942485 8.987182453226042 4.927546621942485 8.512817546773956 5.22 8.219999999999999 Z" strokeLinecap="round" />
</g>
</svg>