<?xml version="1.0" encoding="UTF-8" standalone="no" ?>
<!DOCTYPE svg PUBLIC "-//W3C//DTD SVG 1.1//EN" "http://www.w3.org/Graphics/SVG/1.1/DTD/svg11.dtd">
<svg xmlns="http://www.w3.org/2000/svg" xmlns:xlink="http://www.w3.org/1999/xlink" version="1.1" width="1080" height="1080" viewBox="0 0 1080 1080" xml:space="preserve">
<desc>Created with Fabric.js 5.2.4</desc>
<defs>
</defs>
<rect x="0" y="0" width="100%" height="100%" fill="transparent"></rect>
<g transform="matrix(1 0 0 1 540 540)" id="9cc29d28-b8e9-4e35-a04b-b64a98aaba7a"  >
<rect style="stroke: none; strokeWidth: 1; stroke-dasharray: none; strokeLinecap: butt; stroke-dashoffset: 0; strokeLinejoin: miter; stroke-miterlimit: 4; fill: rgb(255,255,255); fillRule: nonzero; opacity: 1; visibility: hidden;" vector-effect="non-scaling-stroke"  x="-540" y="-540" rx="0" ry="0" width="1080" height="1080" />
</g>
<g transform="matrix(1 0 0 1 540 540)" id="9d79c9a3-ca12-42b8-bd3c-84b3953abb0e"  >
</g>
<g transform="matrix(45 0 0 45 540 540)"  >
<path style="stroke: rgb(255,255,255); strokeWidth: 1.5; stroke-dasharray: none; strokeLinecap: round; stroke-dashoffset: 0; strokeLinejoin: round; stroke-miterlimit: 4; fill: none; fillRule: nonzero; opacity: 1;"  transform=" translate(-12, -12)" d="M 21 8.25 C 21 5.765000000000001 18.901 3.75 16.312 3.75 C 14.377 3.75 12.715000000000002 4.8759999999999994 12 6.4830000000000005 C 11.285 4.876 9.623000000000001 3.7500000000000004 7.687 3.7500000000000004 C 5.1 3.75 3 5.765 3 8.25 C 3 15.469999999999999 12 20.25 12 20.25 C 12 20.25 21 15.469999999999999 21 8.25 Z" strokeLinecap="round" />
</g>
</svg>