<?xml version="1.0" encoding="UTF-8" standalone="no" ?>
<!DOCTYPE svg PUBLIC "-//W3C//DTD SVG 1.1//EN" "http://www.w3.org/Graphics/SVG/1.1/DTD/svg11.dtd">
<svg xmlns="http://www.w3.org/2000/svg" xmlns:xlink="http://www.w3.org/1999/xlink" version="1.1" width="1080" height="1080" viewBox="0 0 1080 1080" xml:space="preserve">
<desc>Created with Fabric.js 5.2.4</desc>
<defs>
</defs>
<rect x="0" y="0" width="100%" height="100%" fill="transparent"></rect>
<g transform="matrix(1 0 0 1 540 540)" id="022c4d02-81a2-4716-8d93-691bd40bad59"  >
<rect style="stroke: none; stroke-width: 1; stroke-dasharray: none; stroke-linecap: butt; stroke-dashoffset: 0; stroke-linejoin: miter; stroke-miterlimit: 4; fill: rgb(255,255,255); fillRule: nonzero; opacity: 1; visibility: hidden;" vector-effect="non-scaling-stroke"  x="-540" y="-540" rx="0" ry="0" width="1080" height="1080" />
</g>
<g transform="matrix(1 0 0 1 540 540)" id="d5fd5e86-efd4-407b-91ab-ebdd6172f773"  >
</g>
<g transform="matrix(45 0 0 45 540 540)"  >
<path style="stroke: rgb(0,0,0); stroke-width: 1.5; stroke-dasharray: none; stroke-linecap: round; stroke-dashoffset: 0; stroke-linejoin: round; stroke-miterlimit: 4; fill: none; fillRule: nonzero; opacity: 0.8;"  transform=" translate(-12, -11.86)" d="M 2.25 12 L 11.204 3.045 C 11.644 2.606 12.356 2.606 12.795 3.045 L 21.75 12 M 4.5 9.75 L 4.5 19.875 C 4.5 20.496 5.004 21 5.625 21 L 9.75 21 L 9.75 16.125 C 9.75 15.504 10.254 15 10.875 15 L 13.125 15 C 13.746 15 14.25 15.504 14.25 16.125 L 14.25 21 L 18.375 21 C 18.996 21 19.5 20.496 19.5 19.875 L 19.5 9.75 M 8.25 21 L 16.5 21" stroke-linecap="round" />
</g>
</svg>