<?xml version="1.0" encoding="UTF-8" standalone="no" ?>
<!DOCTYPE svg PUBLIC "-//W3C//DTD SVG 1.1//EN" "http://www.w3.org/Graphics/SVG/1.1/DTD/svg11.dtd">
<svg xmlns="http://www.w3.org/2000/svg" xmlns:xlink="http://www.w3.org/1999/xlink" version="1.1" width="1080" height="1080" viewBox="0 0 1080 1080" xml:space="preserve">
<desc>Created with Fabric.js 5.2.4</desc>
<defs>
</defs>
<rect x="0" y="0" width="100%" height="100%" fill="transparent"></rect>
<g transform="matrix(1 0 0 1 540 540)" id="b2537cb1-653a-431c-8aed-6cc3e1cf7dc7"  >
<rect style="stroke: none; strokeWidth: 1; stroke-dasharray: none; strokeLinecap: butt; stroke-dashoffset: 0; strokeLinejoin: miter; stroke-miterlimit: 4; fill: rgb(255,255,255); fillRule: nonzero; opacity: 1; visibility: hidden;" vector-effect="non-scaling-stroke"  x="-540" y="-540" rx="0" ry="0" width="1080" height="1080" />
</g>
<g transform="matrix(1 0 0 1 540 540)" id="70199259-11c9-4364-b8fc-70c39df36b36"  >
</g>
<g transform="matrix(54 0 0 54 540 540)"  >
<g style=""   >
		<g transform="matrix(1 0 0 1 2 0)"  >
<path style="stroke: none; strokeWidth: 1; stroke-dasharray: none; strokeLinecap: butt; stroke-dashoffset: 0; strokeLinejoin: miter; stroke-miterlimit: 4; fill: rgb(255,255,255); fillRule: evenodd; opacity: 1;" vector-effect="non-scaling-stroke"  transform=" translate(-12, -10)" d="M 17 4.25 C 17 3.007359312880715 15.992640687119286 2 14.75 2 L 9.25 2 C 8.007359312880714 2 7 3.007359312880715 7 4.25 L 7 6.25 C 7 6.664213562373095 7.335786437626905 7 7.75 7 C 8.164213562373096 7 8.5 6.664213562373095 8.5 6.25 L 8.5 4.25 C 8.5 3.835786437626905 8.835786437626904 3.5 9.25 3.5 L 14.75 3.5 C 15.164213562373096 3.5 15.5 3.8357864376269046 15.5 4.25 L 15.5 15.75 C 15.5 16.164213562373096 15.164213562373096 16.5 14.75 16.5 L 9.25 16.5 C 8.835786437626904 16.5 8.5 16.164213562373096 8.5 15.75 L 8.5 13.75 C 8.5 13.335786437626904 8.164213562373096 13 7.75 13 C 7.335786437626905 13 7 13.335786437626904 7 13.75 L 7 15.75 C 7 16.992640687119284 8.007359312880714 18 9.25 18 L 14.75 18 C 15.992640687119286 18 17 16.992640687119284 17 15.75 L 17 4.25 Z" strokeLinecap="round" />
</g>
		<g transform="matrix(1 0 0 1 -2.5 0)"  >
<path style="stroke: none; strokeWidth: 1; stroke-dasharray: none; strokeLinecap: butt; stroke-dashoffset: 0; strokeLinejoin: miter; stroke-miterlimit: 4; fill: rgb(255,255,255); fillRule: evenodd; opacity: 1;" vector-effect="non-scaling-stroke"  transform=" translate(-7.5, -10)" d="M 14 10 C 14 9.585786437626904 13.664213562373096 9.25 13.25 9.25 L 3.704 9.25 L 4.752000000000001 8.307 C 4.957591348800705 8.129373872161839 5.051041759704685 7.854448511622599 4.996285488048226 7.588327120699667 C 4.941529216391768 7.3222057297767345 4.747129678911727 7.106507438190315 4.488112378585328 7.024477674542626 C 4.229095078258928 6.942447910894937 3.9459681252560275 7.0069154348821865 3.748 7.1930000000000005 L 1.2480000000000007 9.443000000000001 C 1.0902799378809944 9.585215912620026 1.0002459556830698 9.787630077936708 1.0002459556830698 10.000000000000002 C 1.0002459556830698 10.212369922063296 1.0902799378809942 10.414784087379978 1.2480000000000007 10.557000000000002 L 3.7480000000000007 12.807000000000002 C 3.945968125256029 12.993084565117808 4.229095078258926 13.057552089105053 4.4881123785853205 12.975522325457362 C 4.7471296789117154 12.893492561809673 4.941529216391753 12.677794270223258 4.996285488048212 12.41167287930033 C 5.051041759704672 12.145551488377402 4.9575913488006975 11.870626127838166 4.752000000000001 11.693000000000001 L 3.7040000000000006 10.750000000000002 L 13.25 10.750000000000002 C 13.44891236737966 10.750000000000002 13.639677802053885 10.670982369725937 13.780330085889911 10.530330085889911 C 13.920982369725937 10.389677802053885 14 10.198912367379657 14 10 Z" strokeLinecap="round" />
</g>
</g>
</g>
</svg>